<mxfile host="app.diagrams.net" modified="2024-03-15T15:51:03.553Z" agent="Mozilla/5.0 (Windows NT 10.0; Win64; x64) AppleWebKit/537.36 (KHTML, like Gecko) Chrome/122.0.0.0 Safari/537.36" version="24.0.7" etag="eRN3HpX1B_TdvW5v1ztR" type="github">
  <diagram name="第 1 页" id="Uf6tvDXwIrooUoDblHjq">
    <mxGraphModel>
      <root>
        <mxCell id="0" />
        <mxCell id="1" parent="0" />
      </root>
    </mxGraphModel>
  </diagram>
</mxfile>
